<?xml version="1.0" encoding="UTF-8" standalone="no"?>
<svg width="200px" height="58px" viewBox="0 0 200 58" version="1.1" xmlns="http://www.w3.org/2000/svg" xmlns:xlink="http://www.w3.org/1999/xlink">
    <!-- Generator: Sketch 40.3 (33839) - http://www.bohemiancoding.com/sketch -->
    <title>cinder</title>
    <desc>Created with Sketch.</desc>
    <defs></defs>
    <g id="Page-1" stroke="none" stroke-width="1" fill="none" fill-rule="evenodd">
        <g id="cinder" fill="#FFFFFF">
            <polygon id="Shape" points="60.0572525 55.1399136 60.0572525 35.8316316 63.9173336 32.0029189 75.8480377 32.0029189 79.5495344 35.7132067 79.5495344 40.5607324 74.9903215 40.5607324 74.9903215 37.238017 73.3117608 35.5581778 66.4890504 35.5581778 64.6540531 37.3941225 64.6540531 53.615821 66.4890504 55.4517658 73.3117608 55.4517658 74.9903215 53.7715677 74.9903215 50.2557838 79.5495344 50.2557838 79.5495344 55.2576207 75.8480377 58.9714972 63.9173336 58.9714972"></polygon>
            <polygon id="Shape" points="96.9383352 55.61146 99.8991745 55.61146 99.8991745 35.3640327 96.9383352 35.3640327 96.9383352 32.0029189 104.38536 32.0029189 115.497367 51.4673064 115.497367 35.3640327 112.183203 35.3640327 112.183203 32.0029189 122.281416 32.0029189 122.281416 35.3640327 119.551831 35.3640327 119.551831 58.9714972 115.106813 58.9714972 103.957218 39.3108115 103.957218 55.6111011 107.27174 55.6111011 107.27174 58.9711383 96.9383352 58.9711383 96.9383352 55.61146"></polygon>
            <path d="M124.052693,55.61146 L127.01747,55.61146 L127.01747,35.3640327 L124.052693,35.3640327 L124.052693,32.0029189 L142.495024,32.0029189 L146.355105,35.8718243 L146.355105,55.1015152 L142.495024,58.9714972 L124.052693,58.9714972 L124.052693,55.61146 L124.052693,55.61146 Z M139.919728,55.4517658 L141.755799,53.615821 L141.755799,37.3557241 L139.919728,35.5187028 L131.615703,35.5187028 L131.615703,55.4517658 L139.919728,55.4517658 L139.919728,55.4517658 Z" id="Shape"></path>
            <polygon id="Shape" points="147.989993 55.61146 150.951906 55.61146 150.951906 35.3640327 147.989993 35.3640327 147.989993 32.0029189 168.536163 32.0029189 168.536163 39.1916689 164.638494 39.1916689 164.638494 35.3640327 155.552645 35.3640327 155.552645 43.5687247 165.965878 43.5687247 165.965878 47.1645352 155.552645 47.1645352 155.552645 55.61146 164.676798 55.61146 164.676798 51.7791586 168.612771 51.7791586 168.612771 58.9714972 147.989993 58.9714972"></polygon>
            <path d="M170.627831,55.61146 L173.590818,55.61146 L173.590818,35.3640327 L170.627831,35.3640327 L170.627831,32.0029189 L189.267408,32.0029189 L192.813184,35.5585366 L192.813184,42.982701 L190.086105,45.7201103 L192.813184,48.4564431 L192.813184,55.3372884 L193.08668,55.61146 L195.035156,55.61146 L195.035156,58.9714972 L190.318433,58.9714972 L188.212446,56.85851 L188.212446,49.3543192 L186.378523,47.5176567 L178.193704,47.5176567 L178.193704,55.61146 L181.428397,55.61146 L181.428397,58.9714972 L170.627473,58.9714972 L170.627473,55.61146 L170.627831,55.61146 Z M186.460858,44.0768752 L188.212804,42.3213159 L188.212804,37.0054735 L186.612998,35.3640327 L178.193704,35.3640327 L178.193704,44.0768752 L186.460858,44.0768752 L186.460858,44.0768752 Z" id="Shape"></path>
            <rect id="Rectangle-path" x="90.2677657" y="50.3526769" width="4.90788387" height="4.29164641"></rect>
            <rect id="Rectangle-path" x="82.3299526" y="50.3526769" width="4.81803129" height="4.29164641"></rect>
            <rect id="Rectangle-path" x="86.6120902" y="46.059595" width="4.28142167" height="4.964874"></rect>
            <rect id="Rectangle-path" x="86.6120902" y="54.1071049" width="4.28142167" height="4.83030025"></rect>
            <rect id="Rectangle-path" x="86.6120902" y="32.0398818" width="4.28142167" height="4.74130215"></rect>
            <rect id="Rectangle-path" x="86.6120902" y="39.997317" width="4.28142167" height="4.92073381"></rect>
            <rect id="Rectangle-path" x="82.3299526" y="36.332246" width="5.08651509" height="4.292723"></rect>
            <rect id="Rectangle-path" x="90.2677657" y="36.332246" width="4.90788387" height="4.292723"></rect>
            <rect id="Rectangle-path" x="22.1509197" y="19.752043" width="3.04353236" height="2.64769356"></rect>
            <rect id="Rectangle-path" x="26.852966" y="19.752043" width="3.22395347" height="2.64769356"></rect>
            <rect id="Rectangle-path" x="24.7928003" y="17.102914" width="2.64152262" height="3.23120531"></rect>
            <rect id="Rectangle-path" x="24.7928003" y="21.8399097" width="2.64152262" height="3.20895578"></rect>
            <rect id="Rectangle-path" x="32.0952017" y="12.2858916" width="1.91697433" height="2.37100994"></rect>
            <rect id="Rectangle-path" x="32.0952017" y="15.6821741" width="1.91697433" height="2.37100994"></rect>
            <rect id="Rectangle-path" x="33.6108822" y="14.2083224" width="2.31970003" height="1.92243079"></rect>
            <rect id="Rectangle-path" x="30.1782273" y="14.2083224" width="2.18545813" height="1.92243079"></rect>
            <rect id="Rectangle-path" x="27.1053407" y="26.7208097" width="1.15483832" height="1.47169846"></rect>
            <rect id="Rectangle-path" x="27.1053407" y="28.8797314" width="1.15483832" height="1.31487519"></rect>
            <rect id="Rectangle-path" x="28.0138899" y="27.8785028" width="1.40076948" height="1.15841079"></rect>
            <rect id="Rectangle-path" x="25.9501444" y="27.8785028" width="1.40112746" height="1.15841079"></rect>
            <rect id="Rectangle-path" x="21.2352109" y="10.3853515" width="2.41850207" height="1.99815095"></rect>
            <rect id="Rectangle-path" x="24.8432752" y="10.3853515" width="2.37303882" height="1.99815095"></rect>
            <rect id="Rectangle-path" x="23.2298666" y="8.38648284" width="1.99286576" height="2.37962266"></rect>
            <rect id="Rectangle-path" x="23.2298666" y="12.0257157" width="1.99286576" height="2.35701427"></rect>
            <rect id="Rectangle-path" x="30.0941024" y="0.352609756" width="2.90821652" height="3.83553114"></rect>
            <rect id="Rectangle-path" x="30.0941024" y="5.71438658" width="2.90821652" height="3.38766972"></rect>
            <rect id="Rectangle-path" x="32.4442306" y="3.26873307" width="3.46809474" height="2.91648218"></rect>
            <rect id="Rectangle-path" x="27.184812" y="3.26873307" width="3.64708394" height="2.91648218"></rect>
            <polygon id="Shape" points="2.33251948 58.9714972 22.1480559 29.1632335 41.9639502 58.9714972"></polygon>
            <polygon id="Shape" points="15.4427624 58.9714972 35.7340521 24.8435957 55.0709714 58.9714972"></polygon>
            <rect id="Rectangle-path" x="86.6120902" y="36.332246" width="4.28142167" height="4.292723"></rect>
            <rect id="Rectangle-path" x="86.6120902" y="50.3526769" width="4.28142167" height="4.29164641"></rect>
            <rect id="Rectangle-path" x="24.7928003" y="19.752043" width="2.64152262" height="2.64769356"></rect>
            <rect id="Rectangle-path" x="32.0952017" y="14.2083224" width="1.91697433" height="1.92243079"></rect>
            <rect id="Rectangle-path" x="27.1053407" y="27.8785028" width="1.15483832" height="1.15841079"></rect>
            <rect id="Rectangle-path" x="23.2298666" y="10.3853515" width="1.99286576" height="1.99815095"></rect>
            <rect id="Rectangle-path" x="30.0941024" y="3.26873307" width="2.90821652" height="2.91648218"></rect>
        </g>
    </g>
</svg>