<?xml version="1.0" encoding="UTF-8" standalone="no"?>
<svg width="199px" height="40px" viewBox="0 0 199 40" version="1.1" xmlns="http://www.w3.org/2000/svg" xmlns:xlink="http://www.w3.org/1999/xlink">
    <!-- Generator: Sketch 40.3 (33839) - http://www.bohemiancoding.com/sketch -->
    <title>grayarea</title>
    <desc>Created with Sketch.</desc>
    <defs></defs>
    <g id="Page-1" stroke="none" stroke-width="1" fill="none" fill-rule="evenodd">
        <g id="grayarea" fill="#FFFFFF">
            <polygon id="Shape" points="12 0 12 36.5 33.1 0"></polygon>
            <polygon id="Shape" points="14 37.6 45.6 19.3 35.1 1"></polygon>
            <polygon id="Shape" points="10.6 1 0 19.4 10.6 37.8"></polygon>
            <polygon id="Shape" points="57.3 40.2 46.2 21 13 40.2 34.2 40.2 34.2 40.2"></polygon>
            <path d="M69.7,28.9 C67.7,28.9 66.2,28.2 64.9,26.7 C63.7,25.2 63,22.9 63,19.8 C63,17 63.7,14.9 65,13.3 C66.3,11.8 67.9,11 69.7,11 C71.2,11 72.5,11.5 73.6,12.6 C74.6,13.6 75.3,15 75.6,16.7 L73.6,17 C73.4,15.8 73,14.8 72.4,14 C71.8,13.2 70.7,12.9 69.6,12.9 C68.2,12.9 67.2,13.5 66.4,14.6 C65.6,15.8 65.2,17.5 65.2,19.8 C65.2,22.2 65.6,24 66.4,25.2 C67.2,26.4 68.3,27.1 69.6,27.1 C70.8,27.1 71.8,26.6 72.5,25.7 C73.2,24.8 73.6,23.5 73.5,22 L69.1,22 L69.1,20.1 L75.5,20.1 L75.5,21.9 C75.5,24.1 75,25.9 73.8,27.1 C72.9,28.3 71.4,28.9 69.7,28.9 L69.7,28.9 Z" id="Shape"></path>
            <path d="M81,28.2 L81,11 L86.4,11 C88.2,11 89.6,11.5 90.6,12.3 C91.6,13.1 92.1,14.5 92.1,16.1 C92.1,17.5 91.7,18.6 90.9,19.5 C90.1,20.3 89.1,20.9 87.8,21.1 L91.7,28.3 L89.4,28.3 L85.7,21.2 L83,21.2 L83,28.3 C83.1,28.2 81,28.2 81,28.2 L81,28.2 Z M83.1,19.4 L86.3,19.4 C87.5,19.4 88.4,19.2 89.1,18.6 C89.8,18.1 90.1,17.2 90.1,16.1 C90.1,13.9 88.8,12.9 86.2,12.9 L83,12.9 L83.1,19.4 L83.1,19.4 L83.1,19.4 Z" id="Shape"></path>
            <path d="M107.5,28.3 L106.3,24.9 L99.2,24.9 L98.2,28.3 L96,28.3 L101.7,11 L103.9,11 L109.6,28.3 L107.5,28.3 L107.5,28.3 Z M105.7,23.2 L102.8,13.8 L102.8,13.8 L99.8,23.2 L105.7,23.2 L105.7,23.2 Z" id="Shape"></path>
            <polygon id="Shape" points="116.7 28.3 116.7 21 111 11 113.3 11 117.7 19 117.7 19 122.1 11 124.4 11 118.7 21 118.7 28.3 116.7 28.3"></polygon>
            <path d="M148.5,28.3 L147.3,24.9 L140.2,24.9 L139.2,28.3 L137,28.3 L142.7,11 L144.9,11 L150.6,28.3 C150.6,28.3 148.5,28.3 148.5,28.3 L148.5,28.3 Z M146.7,23.2 L143.8,13.8 L143.8,13.8 L140.8,23.2 L146.7,23.2 L146.7,23.2 Z" id="Shape"></path>
            <path d="M155,28.2 L155,11 L160.4,11 C162.2,11 163.6,11.5 164.6,12.3 C165.6,13.1 166.1,14.5 166.1,16.1 C166.1,17.5 165.7,18.6 164.9,19.5 C164.1,20.3 163.1,20.9 161.8,21.1 L165.7,28.3 L163.4,28.3 L159.7,21.2 L157.1,21.2 L157.1,28.3 C157.1,28.2 155,28.2 155,28.2 L155,28.2 Z M157.1,19.4 L160.3,19.4 C161.5,19.4 162.4,19.2 163.1,18.6 C163.8,18.1 164.1,17.2 164.1,16.1 C164.1,13.9 162.8,12.9 160.2,12.9 L157.1,12.9 C157.1,12.8 157.1,19.4 157.1,19.4 L157.1,19.4 Z" id="Shape"></path>
            <path d="M171,28.2 L171,11 L181.2,11 L181.2,12.9 L173.1,12.9 L173.1,18.5 L180.5,18.5 L180.5,20.4 L173.1,20.4 L173.1,26.5 L181.2,26.5 L181.2,28.4 C181.2,28.2 171,28.2 171,28.2 L171,28.2 Z" id="Shape"></path>
            <path d="M196.4,28.3 L195.2,24.9 L188.2,24.9 L187.2,28.3 L185,28.3 L190.7,11 L192.9,11 L198.6,28.3 C198.6,28.3 196.4,28.3 196.4,28.3 L196.4,28.3 Z M194.7,23.2 L191.8,13.8 L191.8,13.8 L188.8,23.2 L194.7,23.2 L194.7,23.2 Z" id="Shape"></path>
        </g>
    </g>
</svg>