<?xml version="1.0" encoding="UTF-8"?>
<svg width="600px" height="200px" viewBox="0 0 600 200" version="1.1" xmlns="http://www.w3.org/2000/svg" xmlns:xlink="http://www.w3.org/1999/xlink">
    <!-- Generator: Sketch 40.3 (33839) - http://www.bohemiancoding.com/sketch -->
    <title>header</title>
    <desc>Created with Sketch.</desc>
    <defs>
        <polygon id="path-1" points="21.0470177 0.192111111 0.337686595 0.192111111 0.337686595 21.0627444 21.0470177 21.0627444 21.0470177 0.192111111"></polygon>
        <polygon id="path-3" points="21.1579363 0.192111111 0.447747044 0.192111111 0.447747044 21.0618511 21.1579363 21.0618511 21.1579363 0.192111111"></polygon>
    </defs>
    <g id="Page-1" stroke="none" stroke-width="1" fill="none" fill-rule="evenodd">
        <g id="header">
            <g id="Group" transform="translate(12.000000, 35.000000)">
                <path d="M0,65.4074056 C3.64128025,65.4074056 6.23715139,66.7066833 8.83086111,67.4354056 C11.4274527,68.1634056 12.7243076,66.9861833 14.0247648,65.4074056 C15.3194582,63.90085 16.6155926,61.97035 19.2143457,61.2170722 C21.8094963,60.4652389 23.1049102,62.4607389 24.4039265,65.4074056 C25.7007814,68.2847389 26.9990772,72.0995167 29.5942279,72.8759056 C32.188658,73.6494056 33.4847924,69.7494056 34.7830882,65.4074056 C36.0792226,61.1426833 37.3789594,56.4345167 39.9733896,55.6602944 C42.5678198,54.8882389 43.8653951,59.6606833 45.1636909,65.4074056 C46.4591048,71.0992389 47.7588416,77.64835 50.3532717,78.6544056 C51.6508471,79.1166278 52.6234882,77.8375722 53.4354635,75.4137944 C54.2474387,72.9820722 54.8937047,69.1817389 55.5428526,65.4074056 C56.19128,61.6381278 56.8397075,57.9129056 57.6524032,54.6231833 C58.4636579,51.34935 59.4370195,48.7486278 60.7331539,48.1036833 C62.0321702,47.46885 63.0033704,49.2657389 63.8139047,52.5807389 C64.6280414,55.8776833 65.2764688,60.4081833 65.9227348,65.4074056 C66.5718827,70.40735 67.2217511,75.8854056 68.0322854,79.99485 C68.8442606,84.1129611 69.8161813,87.1434056 71.1144771,87.4929611 C73.7096277,88.2014611 75.0079235,76.7332944 76.302617,65.4074056 C77.6023537,54.0995722 78.8992086,42.9101833 81.4943593,43.3037944 C84.088069,43.7587944 85.3878057,54.9099056 86.6824992,65.4074056 C87.9815154,75.9857944 89.2762089,84.6979611 91.873521,83.0657389 C93.1703758,82.2431278 94.1451784,79.4170722 94.9564331,75.8435167 C95.7655265,72.3039056 96.4161153,69.1846278 97.0638223,65.4074056 C97.7136907,61.6597944 98.3628386,58.5224611 99.1726524,56.6027944 C99.5768388,55.6350167 100.024254,55.0196833 100.532189,54.8232389 C101.037241,54.6564056 101.604255,54.9662389 102.256285,55.6704056 C104.850715,59.0966278 106.533745,65.40885 112.909948,65.40885 L121.462705,65.4074056" id="Stroke-1" stroke="#FFFFFF" stroke-width="5.76" stroke-linecap="round" stroke-linejoin="round"></path>
                <path d="M112.351147,65.2649111 C112.351147,70.0662444 116.214334,73.9611889 120.980275,73.9611889 C125.745497,73.9611889 129.608683,70.0662444 129.608683,65.2649111 C129.608683,60.4621333 125.745497,56.5686333 120.980275,56.5686333 C116.214334,56.5686333 112.351147,60.4621333 112.351147,65.2649111" id="Fill-3" fill="#FFFFFF"></path>
                <polyline id="Stroke-5" stroke="#FFFFFF" stroke-width="5.76" stroke-linecap="round" stroke-linejoin="round" points="92.2165391 119.372356 106.598659 92.3186333 120.980059 65.2649111"></polyline>
                <polyline id="Stroke-7" stroke="#FFFFFF" stroke-width="5.76" stroke-linecap="round" stroke-linejoin="round" points="149.744084 119.372356 135.361964 92.3186333 120.979843 65.2649111"></polyline>
                <polyline id="Stroke-9" stroke="#FFFFFF" stroke-width="5.76" stroke-linecap="round" stroke-linejoin="round" points="180.424788 65.2649111 150.702316 65.2649111 120.979843 65.2649111"></polyline>
                <polyline id="Stroke-11" stroke="#FFFFFF" stroke-width="5.76" stroke-linecap="round" stroke-linejoin="round" points="92.2165391 11.1574667 106.598659 38.2111889 120.980059 65.2649111"></polyline>
                <polyline id="Stroke-13" stroke="#FFFFFF" stroke-width="5.76" stroke-linecap="round" stroke-linejoin="round" points="149.744084 11.1574667 135.361964 38.2111889 120.979843 65.2649111"></polyline>
                <path d="M110.911638,84.7903333 C106.784038,82.3882222 101.508,83.8124444 99.1261097,87.971 C96.7442196,92.131 98.1599528,97.4472778 102.285392,99.8472222 C106.410111,102.249333 111.68831,100.825833 114.070921,96.6672778 C116.452811,92.5094444 115.037798,87.191 110.911638,84.7903333" id="Fill-15" fill="#FFFFFF"></path>
                <path d="M131.049057,84.7888889 C126.922176,87.191 125.507884,92.5087222 127.889054,96.6672778 C130.273826,100.827278 135.548422,102.247889 139.674582,99.8472222 C143.800022,97.4487222 145.216475,92.131 142.834585,87.9724444 C140.452695,83.8124444 135.174496,82.3882222 131.049057,84.7888889" id="Fill-17" fill="#FFFFFF"></path>
                <path d="M142.073548,65.2649111 C142.073548,70.0662444 145.936734,73.9611889 150.702676,73.9611889 C155.467897,73.9611889 159.331083,70.0662444 159.331083,65.2649111 C159.331083,60.4621333 155.467897,56.5686333 150.702676,56.5686333 C145.936734,56.5686333 142.073548,60.4621333 142.073548,65.2649111" id="Fill-19" fill="#FFFFFF"></path>
                <path d="M110.911638,45.7395611 C106.784038,48.1416722 101.508,46.71745 99.1261097,42.5588944 C96.7442196,38.39745 98.1599528,33.0826167 102.285392,30.6826722 C106.410111,28.2791167 111.68831,29.7040611 114.070921,33.8611722 C116.452811,38.0197278 115.037798,43.3388944 110.911638,45.7395611" id="Fill-21" fill="#FFFFFF"></path>
                <path d="M97.3935837,110.3375 C92.4410391,107.455833 86.108785,109.165333 83.24922,114.154444 C80.3903755,119.147889 82.0906963,125.526556 87.0418,128.406056 C91.9914627,131.289167 98.3244373,129.581111 101.182561,124.591278 C104.042126,119.600722 102.344687,113.219167 97.3935837,110.3375" id="Fill-23" fill="#FFFFFF"></path>
                <path d="M139.389346,119.372356 C139.389346,113.609022 144.026323,108.936967 149.744012,108.936967 C155.463142,108.936967 160.098677,113.609022 160.098677,119.372356 C160.098677,125.134967 155.463142,129.807744 149.744012,129.807744 C144.026323,129.807744 139.389346,125.134967 139.389346,119.372356" id="Fill-25" fill="#FFFFFF"></path>
                <path d="M169.707003,65.2649111 C169.707003,71.0275222 174.34398,75.7003 180.061669,75.7003 C185.780799,75.7003 190.416334,71.0275222 190.416334,65.2649111 C190.416334,59.5015778 185.780799,54.8295222 180.061669,54.8295222 C174.34398,54.8295222 169.707003,59.5015778 169.707003,65.2649111" id="Fill-27" fill="#FFFFFF"></path>
                <g id="Group-31" transform="translate(139.051660, 0.530111)">
                    <mask id="mask-2" fill="white">
                        <use xlink:href="#path-1"></use>
                    </mask>
                    <g id="Clip-30"></g>
                    <path d="M0.337686595,10.6273556 C0.337686595,16.3899667 4.97466319,21.0627444 10.6923522,21.0627444 C16.4114821,21.0627444 21.0470177,16.3899667 21.0470177,10.6273556 C21.0470177,4.86402222 16.4114821,0.191966667 10.6923522,0.191966667 C4.97466319,0.191966667 0.337686595,4.86402222 0.337686595,10.6273556" id="Fill-29" fill="#FFFFFF" mask="url(#mask-2)"></path>
                </g>
                <g id="Group-34" transform="translate(81.413666, 0.530111)">
                    <mask id="mask-4" fill="white">
                        <use xlink:href="#path-3"></use>
                    </mask>
                    <g id="Clip-33"></g>
                    <path d="M15.9799176,19.6608389 C11.027373,22.54395 4.69511892,20.83445 1.83555396,15.8438944 C-1.02329053,10.8518944 0.677030283,4.47250556 5.62813394,1.59300556 C10.5777966,-1.29082778 16.9107712,0.41795 19.7688952,5.40778333 C22.6284602,10.3976167 20.9310213,16.7806167 15.9799176,19.6608389" id="Fill-32" fill="#FFFFFF" mask="url(#mask-4)"></path>
                </g>
                <path d="M131.049057,45.7395611 C126.922176,43.3388944 125.507884,38.02045 127.889054,33.8626167 C130.273826,29.7026167 135.548422,28.2805611 139.674582,30.6812278 C143.800022,33.0811722 145.216475,38.3988944 142.834585,42.55745 C140.452695,46.7160056 135.174496,48.1416722 131.049057,45.7395611" id="Fill-35" fill="#FFFFFF"></path>
            </g>
            <g id="Group-2" transform="translate(218.000000, 76.000000)" fill="#FFFFFF">
                <path d="M24.686611,37.54192 C23.9572943,40.28912 22.4738703,42.50432 20.2379387,44.19072 C18.0012073,45.87632 15.4773874,46.71712 12.6688781,46.71712 L12.4353688,46.71712 C7.6484278,46.71712 3.77233307,44.79792 0.807884317,40.95792 C0.287286491,40.28432 0.0265877329,39.50592 0.0265877329,38.62352 C0.0265877329,37.37792 0.521595497,36.36672 1.51161102,35.58912 C2.18814829,35.06992 2.96944488,34.81072 3.85630047,34.81072 C5.10621506,34.81072 6.12102096,35.30432 6.90391693,36.28912 C8.30977096,38.10592 10.158653,39.01232 12.4513626,39.01232 L12.6856716,39.01232 C14.0915256,39.01232 15.251875,38.53392 16.163521,37.57312 C17.0743672,36.61392 17.5309899,35.43232 17.5309899,34.03072 C17.5309899,32.21712 16.7265023,30.84032 15.1191266,29.90752 L6.17300078,24.45872 C2.07539208,22.02192 0.0265877329,18.46672 0.0265877329,13.79632 C0.0265877329,12.60432 0.180927795,11.43712 0.492006988,10.29472 C1.26850543,7.54672 2.75352873,5.32752 4.95107531,3.64192 C7.14862189,1.95632 9.66844332,1.11232 12.512139,1.11232 L12.746448,1.11232 C17.5541809,1.11232 21.4310753,3.05792 24.3787306,6.94832 C24.8961297,7.67632 25.1544293,8.45472 25.1544293,9.28432 C25.1544293,10.58112 24.6362306,11.59312 23.5990334,12.31872 C22.9240955,12.83712 22.170788,13.09632 21.3423098,13.09632 C20.0452135,13.09632 19.0080163,12.60432 18.2307182,11.61872 C16.8312616,9.74992 14.9895769,8.81712 12.7080629,8.81712 L12.4745536,8.81712 C11.0742974,8.81712 9.91874612,9.29472 9.01189829,10.25472 C8.10505047,11.21232 7.65082686,12.39072 7.65082686,13.78912 C7.65082686,15.60112 8.45771351,16.97472 10.0730862,17.90592 L19.0751902,23.38912 C23.128816,25.82512 25.1544293,29.37632 25.1544293,34.04192 C25.1544293,35.23392 24.9984899,36.40112 24.686611,37.54192" id="Fill-37"></path>
                <path d="M50.9888766,19.7872 L50.9888766,15.8704 C50.9888766,13.8856 50.3011436,12.2 48.9280769,10.8152 C47.552611,9.4328 45.9060505,8.7384 43.9875955,8.7384 L43.6765163,8.7384 C41.7572616,8.7384 40.1099014,9.4328 38.7368346,10.8152 C37.3621685,12.2 36.6752352,13.8856 36.6752352,15.8704 L36.6752352,19.7872 C36.6752352,20.048 36.830375,20.1792 37.1422539,20.1792 L50.5226576,20.1792 C50.8337368,20.1792 50.9888766,20.048 50.9888766,19.7872 L50.9888766,19.7872 Z M58.6131157,23.9136 C58.6131157,25.004 58.249257,25.9264 57.5239387,26.6776 C56.797021,27.4296 55.8901731,27.8056 54.8009961,27.8056 L37.1422539,27.8056 C36.830375,27.8056 36.6752352,27.936 36.6752352,28.1952 L36.6752352,32.0856 C36.6752352,34.0056 37.3621685,35.6544 38.7368346,37.028 C40.1099014,38.4032 41.7572616,39.0904 43.6765163,39.0904 L43.9875955,39.0904 C46.7361281,39.0904 48.7841328,37.8712 50.1340085,35.4328 C50.8585272,34.084 51.9732943,33.4088 53.4783098,33.4088 C54.5682865,33.4088 55.4735349,33.7856 56.202052,34.5368 C56.9265707,35.2904 57.2904293,36.1856 57.2904293,37.2232 C57.2904293,37.8984 57.1352896,38.52 56.8234107,39.0904 C55.5782943,41.4248 53.802184,43.2808 51.4942803,44.6544 C49.1863766,46.0296 46.6833486,46.7168 43.9875955,46.7168 L43.6765163,46.7168 C39.6316871,46.7168 36.1810272,45.2904 33.3293346,42.4368 C30.4776421,39.584 29.0509961,36.1328 29.0509961,32.0856 L29.0509961,15.82 C29.0509961,11.7728 30.4776421,8.3104 33.3293346,5.4312 C36.1810272,2.5512 39.6316871,1.112 43.6765163,1.112 L43.9875955,1.112 C48.0332244,1.112 51.4814852,2.5512 54.3339775,5.4312 C57.18567,8.3104 58.6131157,11.7728 58.6131157,15.82 L58.6131157,23.9136 Z" id="Fill-39"></path>
                <path d="M83.8175675,31.89816 L83.8175675,29.62936 C83.8175675,27.64856 83.1306343,25.96696 81.7567679,24.58536 C80.381302,23.20456 78.7355411,22.51416 76.8170862,22.51416 L76.5052073,22.51416 C74.5859526,22.51416 72.9385924,23.20456 71.5655256,24.58536 C70.1908595,25.96696 69.5047259,27.64856 69.5047259,29.62936 L69.5047259,31.89816 C69.5047259,33.82616 70.1908595,35.48136 71.5655256,36.86216 C72.9385924,38.24376 74.5859526,38.93416 76.5052073,38.93416 L76.8170862,38.93416 C78.7355411,38.93416 80.381302,38.24376 81.7567679,36.86216 C83.1306343,35.48136 83.8175675,33.82616 83.8175675,31.89816 L83.8175675,31.89816 Z M91.4418067,31.88136 C91.4418067,35.94216 90.0151607,39.40456 87.1634682,42.26696 C84.3101762,45.13096 80.8627151,46.56216 76.8170862,46.56216 L76.5052073,46.56216 C72.4603781,46.56216 69.0105179,45.13096 66.1588253,42.27176 C63.3063331,39.41096 61.8796871,35.95096 61.8796871,31.89336 L61.8796871,29.63256 C61.8796871,25.57656 63.3063331,22.10456 66.1588253,19.21656 C69.0105179,16.33096 72.4603781,14.88696 76.5052073,14.88696 L76.8170862,14.88696 C79.15058,14.88696 81.3545241,15.43096 83.4289185,16.52136 C83.6880179,16.62616 83.8175675,16.54696 83.8175675,16.28536 L83.8175675,15.97016 C83.8175675,14.03256 83.1306343,12.36696 81.7567679,10.97816 C80.381302,9.59016 78.7355411,8.89496 76.8170862,8.89496 L76.5052073,8.89496 C74.5859526,8.89496 72.926597,9.61256 71.5271405,11.04696 C70.7994231,11.79016 69.9181654,12.16376 68.8809682,12.16376 C67.7925908,12.16376 66.8713486,11.78376 66.1196405,11.02776 C65.3671328,10.27016 64.9920784,9.36696 64.9920784,8.32136 C64.9920784,7.22456 65.3807275,6.31096 66.1588253,5.57816 C69.0105179,2.70456 72.4603781,1.26696 76.5052073,1.26696 L76.8170862,1.26696 C80.8627151,1.26696 84.3101762,2.69976 87.1634682,5.56216 C90.0151607,8.42616 91.4418067,11.88856 91.4418067,15.94856 L91.4418067,31.88136 Z" id="Fill-41"></path>
                <path d="M117.231151,31.44504 L117.231151,15.60584 C117.231151,13.68264 116.542619,12.03064 115.169552,10.65144 C113.794886,9.27304 112.147526,8.58264 110.229071,8.58264 L109.917991,8.58264 C107.998737,8.58264 106.352176,9.27304 104.97831,10.65144 C103.603644,12.03064 102.91671,13.68264 102.91671,15.60584 L102.91671,31.44504 C102.91671,33.42344 103.603644,35.09944 104.97831,36.47784 C106.352176,37.85784 107.998737,38.54504 109.917991,38.54504 L110.229071,38.54504 C112.147526,38.54504 113.794886,37.85784 115.169552,36.47784 C116.542619,35.09944 117.231151,33.42344 117.231151,31.44504 L117.231151,31.44504 Z M124.854591,57.61224 C124.854591,58.64984 124.490732,59.54504 123.766214,60.29784 C123.038496,61.04984 122.132448,61.42664 121.043271,61.42664 C120.005274,61.42664 119.110422,61.04984 118.358714,60.29784 C117.606206,59.54504 117.231151,58.64984 117.231151,57.61224 L117.231151,44.77144 C117.231151,44.51224 117.100802,44.43384 116.842502,44.53864 C114.766509,45.62824 112.562564,46.17304 110.229071,46.17304 L109.917991,46.17304 C105.873162,46.17304 102.422502,44.73224 99.5716095,41.85304 C96.7191172,38.97304 95.2924713,35.51064 95.2924713,31.46344 L95.2924713,15.66504 C95.2924713,11.61864 96.7191172,8.15464 99.5716095,5.27624 C102.422502,2.39624 105.873162,0.95624 109.917991,0.95624 L110.229071,0.95624 C114.2747,0.95624 117.72296,2.39624 120.576252,5.27624 C123.427145,8.15464 124.854591,11.61864 124.854591,15.66504 L124.854591,57.61224 Z" id="Fill-43"></path>
                <path d="M158.64083,32.06064 C158.64083,36.11504 157.214184,39.57184 154.361692,42.42944 C151.5092,45.28864 148.061738,46.71664 144.016109,46.71664 L143.704231,46.71664 C139.659401,46.71664 136.209541,45.28864 133.357849,42.42944 C130.504557,39.57184 129.07871,36.11504 129.07871,32.06064 L129.07871,5.08704 C129.07871,4.04784 129.44097,3.15264 130.168687,2.39824 C130.894005,1.64464 131.801653,1.26704 132.89083,1.26704 C133.928027,1.26704 134.82288,1.64464 135.574588,2.39824 C136.326296,3.15264 136.70295,4.04944 136.70295,5.08864 L136.70295,32.07184 C136.70295,33.99504 137.389883,35.64624 138.764549,37.02464 C140.137616,38.40304 141.784976,39.09024 143.704231,39.09024 L144.016109,39.09024 C145.933765,39.09024 147.580325,38.40304 148.955791,37.02464 C150.328858,35.64624 151.016591,33.99504 151.016591,32.07184 L151.016591,5.08864 C151.016591,4.04944 151.393245,3.15264 152.144953,2.39824 C152.895861,1.64464 153.790714,1.26704 154.82871,1.26704 C155.917887,1.26704 156.824735,1.64464 157.551653,2.39824 C158.277771,3.15264 158.64083,4.04784 158.64083,5.08704 L158.64083,32.06064 Z" id="Fill-45"></path>
                <path d="M184.631536,19.7872 L184.631536,15.8704 C184.631536,13.8856 183.943804,12.2 182.569937,10.8152 C181.195271,9.4328 179.54871,8.7384 177.630255,8.7384 L177.318377,8.7384 C175.399122,8.7384 173.752561,9.4328 172.378695,10.8152 C171.004029,12.2 170.317895,13.8856 170.317895,15.8704 L170.317895,19.7872 C170.317895,20.048 170.473035,20.1792 170.784114,20.1792 L184.164518,20.1792 C184.476397,20.1792 184.631536,20.048 184.631536,19.7872 L184.631536,19.7872 Z M192.254976,23.9136 C192.254976,25.004 191.891917,25.9264 191.166599,26.6776 C190.439681,27.4296 189.532833,27.8056 188.444456,27.8056 L170.784114,27.8056 C170.473035,27.8056 170.317895,27.936 170.317895,28.1952 L170.317895,32.0856 C170.317895,34.0056 171.004029,35.6544 172.378695,37.028 C173.752561,38.4032 175.399122,39.0904 177.318377,39.0904 L177.630255,39.0904 C180.378788,39.0904 182.425993,37.8712 183.775869,35.4328 C184.501987,34.084 185.615954,33.4088 187.12097,33.4088 C188.210147,33.4088 189.116995,33.7856 189.843912,34.5368 C190.57003,35.2904 190.933089,36.1856 190.933089,37.2232 C190.933089,37.8984 190.77795,38.52 190.46687,39.0904 C189.221754,41.4248 187.444844,43.2808 185.13774,44.6544 C182.829036,46.0296 180.326009,46.7168 177.630255,46.7168 L177.318377,46.7168 C173.273547,46.7168 169.823687,45.2904 166.972794,42.4368 C164.119502,39.584 162.692856,36.1328 162.692856,32.0856 L162.692856,15.82 C162.692856,11.7728 164.119502,8.3104 166.972794,5.4312 C169.823687,2.5512 173.273547,1.112 177.318377,1.112 L177.630255,1.112 C181.675884,1.112 185.123345,2.5512 187.977437,5.4312 C190.82833,8.3104 192.254976,11.7728 192.254976,15.82 L192.254976,23.9136 Z" id="Fill-47"></path>
                <path d="M225.74605,42.4372 C225.74605,43.526 225.373394,44.4484 224.628884,45.1996 C223.885172,45.9532 222.972727,46.3276 221.895545,46.3276 C220.867944,46.3276 219.981888,45.9532 219.238177,45.1996 C218.494466,44.4484 218.12261,43.526 218.12261,42.4372 L218.12261,15.8204 C218.12261,13.85 217.430879,12.1764 216.049815,10.8012 C214.667152,9.426 213.012595,8.7388 211.082944,8.7388 L210.769466,8.7388 C208.839016,8.7388 207.183658,9.426 205.803394,10.8012 C204.420731,12.1764 203.730599,13.85 203.730599,15.8204 L203.730599,42.4372 C203.730599,43.526 203.353946,44.4484 202.603037,45.1996 C201.84973,45.9532 200.954877,46.3276 199.91768,46.3276 C198.880483,46.3276 197.98563,45.9532 197.234722,45.1996 C196.481415,44.4484 196.10716,43.526 196.10716,42.4372 L196.10716,15.8204 C196.10716,11.7732 197.533006,8.3108 200.384699,5.4308 C203.237191,2.5516 206.687051,1.1124 210.73268,1.1124 L211.04296,1.1124 C215.088589,1.1124 218.549644,2.5516 221.428526,5.4308 C224.306609,8.3108 225.74605,11.7732 225.74605,15.8204 L225.74605,42.4372 Z" id="Fill-49"></path>
                <path d="M257.611035,39.01216 C256.313139,41.39936 254.510639,43.28096 252.203535,44.65456 C249.895631,46.02896 247.393403,46.71696 244.69765,46.71696 L244.385771,46.71696 C240.340142,46.71696 236.878286,45.29056 234.000204,42.43696 C231.121322,39.58416 229.682681,36.13216 229.682681,32.08576 L229.682681,15.82016 C229.682681,11.77296 231.121322,8.31056 234.000204,5.43056 C236.878286,2.55136 240.340142,1.11216 244.385771,1.11216 L244.69765,1.11216 C247.341423,1.11216 249.818061,1.79936 252.125965,3.17456 C254.433069,4.54976 256.235569,6.40416 257.532665,8.73856 C257.843745,9.31056 257.999684,9.93216 257.999684,10.60576 C257.999684,11.64496 257.622231,12.54016 256.866524,13.29216 C256.111617,14.04336 255.213566,14.42016 254.17317,14.42016 C252.663356,14.42016 251.543791,13.74656 250.815274,12.39616 C249.4614,9.95936 247.405398,8.73856 244.647269,8.73856 L244.334591,8.73856 C242.407339,8.73856 240.755181,9.42656 239.374917,10.80096 C237.995453,12.17616 237.30612,13.84976 237.30612,15.82016 L237.30612,32.08576 C237.30612,34.00576 237.995453,35.65456 239.374917,37.02816 C240.755181,38.40256 242.407339,39.09056 244.334591,39.09056 L244.647269,39.09056 C247.404599,39.09056 249.4614,37.84496 250.815274,35.35456 C251.543791,34.00576 252.663356,33.33056 254.17317,33.33056 C255.265546,33.33056 256.189987,33.70736 256.944094,34.45936 C257.699001,35.21216 258.077254,36.13216 258.077254,37.22336 C258.077254,37.84496 257.922114,38.44176 257.611035,39.01216" id="Fill-51"></path>
                <path d="M283.70946,19.7872 L283.70946,15.8704 C283.70946,13.8856 283.021727,12.2 281.64786,10.8152 C280.273194,9.4328 278.626634,8.7384 276.708179,8.7384 L276.3963,8.7384 C274.477845,8.7384 272.830484,9.4328 271.457418,10.8152 C270.082752,12.2 269.395818,13.8856 269.395818,15.8704 L269.395818,19.7872 C269.395818,20.048 269.550958,20.1792 269.862837,20.1792 L283.242441,20.1792 C283.55432,20.1792 283.70946,20.048 283.70946,19.7872 L283.70946,19.7872 Z M291.332899,23.9136 C291.332899,25.004 290.96984,25.9264 290.244522,26.6776 C289.517604,27.4296 288.610756,27.8056 287.521579,27.8056 L269.862837,27.8056 C269.550958,27.8056 269.395818,27.936 269.395818,28.1952 L269.395818,32.0856 C269.395818,34.0056 270.082752,35.6544 271.457418,37.028 C272.830484,38.4032 274.477845,39.0904 276.3963,39.0904 L276.708179,39.0904 C279.456711,39.0904 281.504716,37.8712 282.853792,35.4328 C283.57991,34.084 284.693877,33.4088 286.198893,33.4088 C287.28807,33.4088 288.194918,33.7856 288.921835,34.5368 C289.647953,35.2904 290.011012,36.1856 290.011012,37.2232 C290.011012,37.8984 289.855873,38.52 289.543994,39.0904 C288.298877,41.4248 286.522767,43.2808 284.215663,44.6544 C281.90696,46.0296 279.403932,46.7168 276.708179,46.7168 L276.3963,46.7168 C272.35147,46.7168 268.90161,45.2904 266.049918,42.4368 C263.198225,39.584 261.771579,36.1328 261.771579,32.0856 L261.771579,15.82 C261.771579,11.7728 263.198225,8.3104 266.049918,5.4312 C268.90161,2.5512 272.35147,1.112 276.3963,1.112 L276.708179,1.112 C280.753807,1.112 284.202068,2.5512 287.05536,5.4312 C289.906253,8.3104 291.332899,11.7728 291.332899,15.82 L291.332899,23.9136 Z" id="Fill-53"></path>
            </g>
        </g>
    </g>
</svg>