<?xml version="1.0" encoding="utf-8"?>
<!-- Generator: Adobe Illustrator 21.0.0, SVG Export Plug-In . SVG Version: 6.00 Build 0)  -->
<svg version="1.1" id="Layer_1" xmlns="http://www.w3.org/2000/svg" xmlns:xlink="http://www.w3.org/1999/xlink" x="0px" y="0px"
	 viewBox="0 0 600 150" style="enable-background:new 0 0 600 150;" xml:space="preserve">
<style type="text/css">
	.st0{fill:none;stroke:#FFFFFF;stroke-width:5.76;stroke-linecap:round;stroke-linejoin:round;}
	.st1{fill:#FFFFFF;}
</style>
<title>header</title>
<desc>Created with Sketch.</desc>
<g id="Page-1">
	<g id="header">
		<g id="Group" transform="translate(12.000000, 35.000000)">
			<path id="Stroke-1" class="st0" d="M39.3,39.4c3.6,0,6.2,1.3,8.8,2c2.6,0.7,3.9-0.4,5.2-2c1.3-1.5,2.6-3.4,5.2-4.2
				c2.6-0.8,3.9,1.2,5.2,4.2c1.3,2.9,2.6,6.7,5.2,7.5s3.9-3.1,5.2-7.5c1.3-4.3,2.6-9,5.2-9.7c2.6-0.8,3.9,4,5.2,9.7
				c1.3,5.7,2.6,12.2,5.2,13.2c1.3,0.5,2.3-0.8,3.1-3.2c0.8-2.4,1.5-6.2,2.1-10s1.3-7.5,2.1-10.8c0.8-3.3,1.8-5.9,3.1-6.5
				c1.3-0.6,2.3,1.2,3.1,4.5c0.8,3.3,1.5,7.8,2.1,12.8c0.6,5,1.3,10.5,2.1,14.6c0.8,4.1,1.8,7.1,3.1,7.5c2.6,0.7,3.9-10.8,5.2-22.1
				c1.3-11.3,2.6-22.5,5.2-22.1c2.6,0.5,3.9,11.6,5.2,22.1c1.2,10.6,2.5,19.3,5.1,17.7c1.3-0.8,2.3-3.6,3.1-7.2
				c0.8-3.5,1.5-6.7,2.1-10.4c0.6-3.7,1.3-6.9,2.1-8.8c0.4-1,0.9-1.6,1.4-1.8c0.5-0.2,1.1,0.1,1.7,0.8c2.6,3.4,4.3,9.7,10.7,9.7h8.6
				"/>
			<path id="Fill-3" class="st1" d="M151.7,39.3c0,4.8,3.9,8.7,8.6,8.7c4.8,0,8.6-3.9,8.6-8.7s-3.9-8.7-8.6-8.7
				C155.5,30.6,151.7,34.5,151.7,39.3"/>
			<polyline id="Stroke-5" class="st0" points="131.5,93.4 145.9,66.3 160.3,39.3 			"/>
			<polyline id="Stroke-7" class="st0" points="189,93.4 174.7,66.3 160.3,39.3 			"/>
			<polyline id="Stroke-9" class="st0" points="219.7,39.3 190,39.3 160.3,39.3 			"/>
			<polyline id="Stroke-11" class="st0" points="131.5,-14.8 145.9,12.2 160.3,39.3 			"/>
			<polyline id="Stroke-13" class="st0" points="189,-14.8 174.7,12.2 160.3,39.3 			"/>
			<path id="Fill-15" class="st1" d="M150.2,58.8c-4.1-2.4-9.4-1-11.8,3.2c-2.4,4.2-1,9.5,3.2,11.9c4.1,2.4,9.4,1,11.8-3.2
				C155.8,66.5,154.3,61.2,150.2,58.8"/>
			<path id="Fill-17" class="st1" d="M170.3,58.8c-4.1,2.4-5.5,7.7-3.2,11.9c2.4,4.2,7.7,5.6,11.8,3.2s5.5-7.7,3.2-11.9
				C179.8,57.8,174.5,56.4,170.3,58.8"/>
			<path id="Fill-19" class="st1" d="M181.4,39.3c0,4.8,3.9,8.7,8.6,8.7c4.8,0,8.6-3.9,8.6-8.7s-3.9-8.7-8.6-8.7
				C185.2,30.6,181.4,34.5,181.4,39.3"/>
			<path id="Fill-21" class="st1" d="M150.2,19.7c-4.1,2.4-9.4,1-11.8-3.2c-2.4-4.2-1-9.5,3.2-11.9c4.1-2.4,9.4-1,11.8,3.2
				C155.8,12,154.3,17.3,150.2,19.7"/>
			<path id="Fill-23" class="st1" d="M136.7,84.3c-5-2.9-11.3-1.2-14.1,3.8c-2.9,5-1.2,11.4,3.8,14.3c4.9,2.9,11.3,1.2,14.1-3.8
				C143.3,93.6,141.6,87.2,136.7,84.3"/>
			<path id="Fill-25" class="st1" d="M178.7,93.4c0-5.8,4.6-10.4,10.4-10.4c5.7,0,10.4,4.7,10.4,10.4c0,5.8-4.6,10.4-10.4,10.4
				S178.7,99.1,178.7,93.4"/>
			<path id="Fill-27" class="st1" d="M209,39.3c0,5.8,4.6,10.4,10.4,10.4c5.7,0,10.4-4.7,10.4-10.4c0-5.8-4.6-10.4-10.4-10.4
				C213.6,28.8,209,33.5,209,39.3"/>
			<g id="Group-31" transform="translate(139.051660, 0.530111)">
				<g id="Clip-30">
				</g>
				<path id="Fill-29" class="st1" d="M39.6-15.4c0,5.8,4.7,10.5,10.4,10.5s10.4-4.7,10.4-10.4c0-5.8-4.6-10.4-10.4-10.4
					C44.3-25.8,39.6-21.1,39.6-15.4"/>
			</g>
			<g id="Group-34" transform="translate(81.413666, 0.530111)">
				<g id="Clip-33">
				</g>
				<path id="Fill-32" class="st1" d="M55.3-6.3c-5,2.8-11.3,1.1-14.2-3.9c-2.9-5-1.2-11.4,3.8-14.3c4.9-2.9,11.3-1.2,14.1,3.8
					C61.9-15.6,60.2-9.2,55.3-6.3"/>
			</g>
			<path id="Fill-35" class="st1" d="M170.3,19.7c-4.1-2.4-5.5-7.7-3.2-11.9c2.4-4.2,7.7-5.6,11.8-3.2s5.5,7.7,3.2,11.9
				S174.5,22.1,170.3,19.7"/>
		</g>
		<g id="Group-2" transform="translate(218.000000, 76.000000)">
			<path id="Fill-37" class="st1" d="M64,11.5c-0.7,2.7-2.2,5-4.4,6.6c-2.2,1.7-4.8,2.5-7.6,2.5h-0.2c-4.8,0-8.7-1.9-11.6-5.8
				c-0.6-0.5-0.9-1.3-0.9-2.2c0-1.2,0.5-2.3,1.5-3c0.7-0.5,1.5-0.8,2.4-0.8c1.2,0,2.3,0.5,3,1.5c1.4,1.8,3.3,2.7,5.5,2.7h0.2
				c1.4,0,2.6-0.5,3.5-1.4c0.9-1,1.4-2.1,1.4-3.5c0-1.8-0.8-3.2-2.4-4.1l-8.9-5.5c-4.1-2.5-6.2-6-6.2-10.7c0-1.2,0.2-2.4,0.5-3.5
				c0.8-2.7,2.3-5,4.5-6.7c2.2-1.7,4.7-2.5,7.6-2.5h0.2c4.8,0,8.7,1.9,11.6,5.8c0.5,0.7,0.8,1.5,0.8,2.3c0,1.3-0.5,2.3-1.6,3
				c-0.7,0.5-1.4,0.8-2.3,0.8c-1.3,0-2.3-0.5-3.1-1.5c-1.4-1.9-3.2-2.8-5.5-2.8h-0.2c-1.4,0-2.6,0.5-3.5,1.4c-0.9,1-1.4,2.1-1.4,3.5
				c0,1.8,0.8,3.2,2.4,4.1l9,5.5c4.1,2.4,6.1,6,6.1,10.7C64.5,9.2,64.3,10.4,64,11.5"/>
			<path id="Fill-39" class="st1" d="M90.3-6.2v-3.9c0-2-0.7-3.7-2.1-5.1c-1.4-1.4-3-2.1-4.9-2.1H83c-1.9,0-3.6,0.7-4.9,2.1
				c-1.4,1.4-2.1,3.1-2.1,5.1v3.9c0,0.3,0.2,0.4,0.5,0.4h13.4C90.1-5.8,90.3-6,90.3-6.2L90.3-6.2z M97.9-2.1c0,1.1-0.4,2-1.1,2.8
				c-0.7,0.8-1.6,1.1-2.7,1.1H76.4c-0.3,0-0.5,0.1-0.5,0.4v3.9c0,1.9,0.7,3.6,2.1,4.9c1.4,1.4,3,2.1,4.9,2.1h0.4
				c2.7,0,4.8-1.2,6.1-3.7c0.7-1.3,1.8-2,3.3-2c1.1,0,2,0.4,2.7,1.1c0.7,0.8,1.1,1.6,1.1,2.7c0,0.7-0.2,1.3-0.5,1.9
				c-1.2,2.3-3,4.2-5.3,5.6c-2.3,1.4-4.8,2.1-7.5,2.1h-0.3c-4,0-7.5-1.4-10.3-4.3c-2.9-2.9-4.3-6.3-4.3-10.4v-16.3
				c0-4,1.4-7.5,4.3-10.4s6.3-4.3,10.3-4.3h0.4c4,0,7.5,1.4,10.3,4.3c2.9,2.9,4.3,6.3,4.3,10.4V-2.1z"/>
			<path id="Fill-41" class="st1" d="M123.1,5.9V3.6c0-2-0.7-3.7-2.1-5c-1.4-1.4-3-2.1-4.9-2.1h-0.3c-1.9,0-3.6,0.7-4.9,2.1
				c-1.4,1.4-2.1,3.1-2.1,5v2.3c0,1.9,0.7,3.6,2.1,5s3,2.1,4.9,2.1h0.3c1.9,0,3.6-0.7,4.9-2.1C122.4,9.5,123.1,7.8,123.1,5.9
				L123.1,5.9z M130.7,5.9c0,4.1-1.4,7.5-4.3,10.4c-2.9,2.9-6.3,4.3-10.3,4.3h-0.3c-4,0-7.5-1.4-10.3-4.3c-2.9-2.9-4.3-6.3-4.3-10.4
				V3.6c0-4.1,1.4-7.5,4.3-10.4s6.3-4.3,10.3-4.3h0.3c2.3,0,4.5,0.5,6.6,1.6c0.3,0.1,0.4,0,0.4-0.2V-10c0-1.9-0.7-3.6-2.1-5
				s-3-2.1-4.9-2.1h-0.3c-1.9,0-3.6,0.7-5,2.2c-0.7,0.7-1.6,1.1-2.6,1.1c-1.1,0-2-0.4-2.8-1.1c-0.8-0.8-1.1-1.7-1.1-2.7
				c0-1.1,0.4-2,1.2-2.7c2.9-2.9,6.3-4.3,10.3-4.3h0.3c4,0,7.5,1.4,10.3,4.3c2.9,2.9,4.3,6.3,4.3,10.4V5.9z"/>
			<path id="Fill-43" class="st1" d="M156.5,5.4v-15.8c0-1.9-0.7-3.6-2.1-5c-1.4-1.4-3-2.1-4.9-2.1h-0.3c-1.9,0-3.6,0.7-4.9,2.1
				c-1.4,1.4-2.1,3-2.1,5V5.4c0,2,0.7,3.7,2.1,5c1.4,1.4,3,2.1,4.9,2.1h0.3c1.9,0,3.6-0.7,4.9-2.1C155.8,9.1,156.5,7.4,156.5,5.4
				L156.5,5.4z M164.2,31.6c0,1-0.4,1.9-1.1,2.7s-1.6,1.1-2.7,1.1c-1,0-1.9-0.4-2.7-1.1c-0.8-0.8-1.1-1.6-1.1-2.7V18.8
				c0-0.3-0.1-0.3-0.4-0.2c-2.1,1.1-4.3,1.6-6.6,1.6h-0.3c-4,0-7.5-1.4-10.3-4.3c-2.9-2.9-4.3-6.3-4.3-10.4v-15.8
				c0-4,1.4-7.5,4.3-10.4c2.9-2.9,6.3-4.3,10.3-4.3h0.3c4,0,7.5,1.4,10.3,4.3c2.9,2.9,4.3,6.3,4.3,10.4L164.2,31.6L164.2,31.6z"/>
			<path id="Fill-45" class="st1" d="M197.9,6.1c0,4.1-1.4,7.5-4.3,10.4c-2.9,2.9-6.3,4.3-10.3,4.3H183c-4,0-7.5-1.4-10.3-4.3
				c-2.9-2.9-4.3-6.3-4.3-10.4v-27c0-1,0.4-1.9,1.1-2.7c0.7-0.8,1.6-1.1,2.7-1.1c1,0,1.9,0.4,2.7,1.1c0.8,0.8,1.1,1.7,1.1,2.7v27
				c0,1.9,0.7,3.6,2.1,5c1.4,1.4,3,2.1,4.9,2.1h0.3c1.9,0,3.6-0.7,4.9-2.1c1.4-1.4,2.1-3,2.1-5v-27c0-1,0.4-1.9,1.1-2.7
				c0.8-0.8,1.6-1.1,2.7-1.1c1.1,0,2,0.4,2.7,1.1c0.7,0.8,1.1,1.6,1.1,2.7V6.1z"/>
			<path id="Fill-47" class="st1" d="M223.9-6.2v-3.9c0-2-0.7-3.7-2.1-5.1c-1.4-1.4-3-2.1-4.9-2.1h-0.3c-1.9,0-3.6,0.7-4.9,2.1
				c-1.4,1.4-2.1,3.1-2.1,5.1v3.9c0,0.3,0.2,0.4,0.5,0.4h13.4C223.8-5.8,223.9-6,223.9-6.2L223.9-6.2z M231.6-2.1
				c0,1.1-0.4,2-1.1,2.8c-0.7,0.8-1.6,1.1-2.7,1.1h-17.7c-0.3,0-0.5,0.1-0.5,0.4v3.9c0,1.9,0.7,3.6,2.1,4.9c1.4,1.4,3,2.1,4.9,2.1
				h0.3c2.7,0,4.8-1.2,6.1-3.7c0.7-1.3,1.8-2,3.3-2c1.1,0,2,0.4,2.7,1.1c0.7,0.8,1.1,1.6,1.1,2.7c0,0.7-0.2,1.3-0.5,1.9
				c-1.2,2.3-3,4.2-5.3,5.6c-2.3,1.4-4.8,2.1-7.5,2.1h-0.3c-4,0-7.5-1.4-10.3-4.3c-2.9-2.9-4.3-6.3-4.3-10.4v-16.3
				c0-4,1.4-7.5,4.3-10.4c2.9-2.9,6.3-4.3,10.3-4.3h0.3c4,0,7.5,1.4,10.3,4.3c2.9,2.9,4.3,6.3,4.3,10.4v8.1H231.6z"/>
			<path id="Fill-49" class="st1" d="M265,16.4c0,1.1-0.4,2-1.1,2.8c-0.7,0.8-1.7,1.1-2.7,1.1s-1.9-0.4-2.7-1.1
				c-0.7-0.8-1.1-1.7-1.1-2.8v-26.6c0-2-0.7-3.6-2.1-5c-1.4-1.4-3-2.1-5-2.1H250c-1.9,0-3.6,0.7-5,2.1s-2.1,3-2.1,5v26.6
				c0,1.1-0.4,2-1.1,2.8c-0.8,0.8-1.6,1.1-2.7,1.1s-1.9-0.4-2.7-1.1c-0.8-0.8-1.1-1.7-1.1-2.8v-26.6c0-4,1.4-7.5,4.3-10.4
				c2.9-2.9,6.3-4.3,10.3-4.3h0.3c4,0,7.5,1.4,10.4,4.3s4.3,6.3,4.3,10.4v26.6H265z"/>
			<path id="Fill-51" class="st1" d="M296.9,13c-1.3,2.4-3.1,4.3-5.4,5.6c-2.3,1.4-4.8,2.1-7.5,2.1h-0.3c-4,0-7.5-1.4-10.4-4.3
				S269,10.1,269,6v-16.3c0-4,1.4-7.5,4.3-10.4s6.3-4.3,10.4-4.3h0.3c2.6,0,5.1,0.7,7.4,2.1s4.1,3.2,5.4,5.6
				c0.3,0.6,0.5,1.2,0.5,1.9c0,1-0.4,1.9-1.1,2.7c-0.8,0.8-1.7,1.1-2.7,1.1c-1.5,0-2.6-0.7-3.4-2c-1.4-2.4-3.4-3.7-6.2-3.7h-0.3
				c-1.9,0-3.6,0.7-5,2.1s-2.1,3-2.1,5V6.1c0,1.9,0.7,3.6,2.1,4.9c1.4,1.4,3,2.1,5,2.1h0.3c2.8,0,4.8-1.2,6.2-3.7
				c0.7-1.3,1.8-2,3.4-2c1.1,0,2,0.4,2.8,1.1c0.8,0.8,1.1,1.7,1.1,2.8C297.4,11.8,297.2,12.4,296.9,13"/>
			<path id="Fill-53" class="st1" d="M323-6.2v-3.9c0-2-0.7-3.7-2.1-5.1s-3-2.1-4.9-2.1h-0.3c-1.9,0-3.6,0.7-4.9,2.1
				c-1.4,1.4-2.1,3.1-2.1,5.1v3.9c0,0.3,0.2,0.4,0.5,0.4h13.4C322.9-5.8,323-6,323-6.2L323-6.2z M330.6-2.1c0,1.1-0.4,2-1.1,2.8
				s-1.6,1.1-2.7,1.1h-17.7c-0.3,0-0.5,0.1-0.5,0.4v3.9c0,1.9,0.7,3.6,2.1,4.9c1.4,1.4,3,2.1,4.9,2.1h0.3c2.7,0,4.8-1.2,6.1-3.7
				c0.7-1.3,1.8-2,3.3-2c1.1,0,2,0.4,2.7,1.1c0.7,0.8,1.1,1.6,1.1,2.7c0,0.7-0.2,1.3-0.5,1.9c-1.2,2.3-3,4.2-5.3,5.6
				c-2.3,1.4-4.8,2.1-7.5,2.1h-0.3c-4,0-7.5-1.4-10.3-4.3c-2.9-2.9-4.3-6.3-4.3-10.4v-16.3c0-4,1.4-7.5,4.3-10.4s6.3-4.3,10.3-4.3
				h0.3c4,0,7.5,1.4,10.3,4.3c2.9,2.9,4.3,6.3,4.3,10.4v8.1H330.6z"/>
		</g>
	</g>
</g>
</svg>
