<?xml version="1.0" encoding="UTF-8"?>
<svg width="374px" height="86px" viewBox="0 0 374 86" version="1.1" xmlns="http://www.w3.org/2000/svg" xmlns:xlink="http://www.w3.org/1999/xlink">
    <!-- Generator: Sketch 45.1 (43504) - http://www.bohemiancoding.com/sketch -->
    <title>seaq-logotype</title>
    <desc>Created with Sketch.</desc>
    <defs></defs>
    <g id="Device-Mocks" stroke="none" stroke-width="1" fill="none" fill-rule="evenodd">
        <g id="seaq-logotype" fill="#FFFFFF">
            <g id="Group-2" transform="translate(3.000000, 5.000000)">
                <path d="M31.7285,45.9274 C30.8165,49.3614 28.9615,52.1304 26.1655,54.2384 C23.3685,56.3454 20.2125,57.3964 16.7005,57.3964 L16.4085,57.3964 C10.4225,57.3964 5.5755,54.9974 1.8685,50.1974 C1.2175,49.3554 0.8915,48.3824 0.8915,47.2794 C0.8915,45.7224 1.5105,44.4584 2.7485,43.4864 C3.5945,42.8374 4.5715,42.5134 5.6805,42.5134 C7.2435,42.5134 8.5125,43.1304 9.4915,44.3614 C11.2495,46.6324 13.5615,47.7654 16.4285,47.7654 L16.7215,47.7654 C18.4795,47.7654 19.9305,47.1674 21.0705,45.9664 C22.2095,44.7674 22.7805,43.2904 22.7805,41.5384 C22.7805,39.2714 21.7745,37.5504 19.7645,36.3844 L8.5775,29.5734 C3.4535,26.5274 0.8915,22.0834 0.8915,16.2454 C0.8915,14.7554 1.0845,13.2964 1.4735,11.8684 C2.4445,8.4334 4.3015,5.6594 7.0495,3.5524 C9.7975,1.4454 12.9485,0.3904 16.5045,0.3904 L16.7975,0.3904 C22.8095,0.3904 27.6575,2.8224 31.3435,7.6854 C31.9905,8.5954 32.3135,9.5684 32.3135,10.6054 C32.3135,12.2264 31.6655,13.4914 30.3685,14.3984 C29.5245,15.0464 28.5825,15.3704 27.5465,15.3704 C25.9245,15.3704 24.6275,14.7554 23.6555,13.5234 C21.9055,11.1874 19.6025,10.0214 16.7495,10.0214 L16.4575,10.0214 C14.7065,10.0214 13.2615,10.6184 12.1275,11.8184 C10.9935,13.0154 10.4255,14.4884 10.4255,16.2364 C10.4255,18.5014 11.4345,20.2184 13.4545,21.3824 L24.7115,28.2364 C29.7805,31.2814 32.3135,35.7204 32.3135,41.5524 C32.3135,43.0424 32.1185,44.5014 31.7285,45.9274" id="Fill-37"></path>
                <path d="M64.6191,23.734 L64.6191,18.838 C64.6191,16.357 63.7591,14.25 62.0421,12.519 C60.3221,10.791 58.2631,9.923 55.8641,9.923 L55.4751,9.923 C53.0751,9.923 51.0151,10.791 49.2981,12.519 C47.5791,14.25 46.7201,16.357 46.7201,18.838 L46.7201,23.734 C46.7201,24.06 46.9141,24.224 47.3041,24.224 L64.0361,24.224 C64.4251,24.224 64.6191,24.06 64.6191,23.734 L64.6191,23.734 Z M74.1531,28.892 C74.1531,30.255 73.6981,31.408 72.7911,32.347 C71.8821,33.287 70.7481,33.757 69.3861,33.757 L47.3041,33.757 C46.9141,33.757 46.7201,33.92 46.7201,34.244 L46.7201,39.107 C46.7201,41.507 47.5791,43.568 49.2981,45.285 C51.0151,47.004 53.0751,47.863 55.4751,47.863 L55.8641,47.863 C59.3011,47.863 61.8621,46.339 63.5501,43.291 C64.4561,41.605 65.8501,40.761 67.7321,40.761 C69.0951,40.761 70.2271,41.232 71.1381,42.171 C72.0441,43.113 72.4991,44.232 72.4991,45.529 C72.4991,46.373 72.3051,47.15 71.9151,47.863 C70.3581,50.781 68.1371,53.101 65.2511,54.818 C62.3651,56.537 59.2351,57.396 55.8641,57.396 L55.4751,57.396 C50.4171,57.396 46.1021,55.613 42.5361,52.046 C38.9701,48.48 37.1861,44.166 37.1861,39.107 L37.1861,18.775 C37.1861,13.716 38.9701,9.388 42.5361,5.789 C46.1021,2.189 50.4171,0.39 55.4751,0.39 L55.8641,0.39 C60.9231,0.39 65.2351,2.189 68.8021,5.789 C72.3681,9.388 74.1531,13.716 74.1531,18.775 L74.1531,28.892 Z" id="Fill-39"></path>
                <path d="M105.6709,38.8727 L105.6709,36.0367 C105.6709,33.5607 104.8119,31.4587 103.0939,29.7317 C101.3739,28.0057 99.3159,27.1427 96.9169,27.1427 L96.5269,27.1427 C94.1269,27.1427 92.0669,28.0057 90.3499,29.7317 C88.6309,31.4587 87.7729,33.5607 87.7729,36.0367 L87.7729,38.8727 C87.7729,41.2827 88.6309,43.3517 90.3499,45.0777 C92.0669,46.8047 94.1269,47.6677 96.5269,47.6677 L96.9169,47.6677 C99.3159,47.6677 101.3739,46.8047 103.0939,45.0777 C104.8119,43.3517 105.6709,41.2827 105.6709,38.8727 L105.6709,38.8727 Z M115.2049,38.8517 C115.2049,43.9277 113.4209,48.2557 109.8549,51.8337 C106.2869,55.4137 101.9759,57.2027 96.9169,57.2027 L96.5269,57.2027 C91.4689,57.2027 87.1549,55.4137 83.5889,51.8397 C80.0219,48.2637 78.2379,43.9387 78.2379,38.8667 L78.2379,36.0407 C78.2379,30.9707 80.0219,26.6307 83.5889,23.0207 C87.1549,19.4137 91.4689,17.6087 96.5269,17.6087 L96.9169,17.6087 C99.8349,17.6087 102.5909,18.2887 105.1849,19.6517 C105.5089,19.7827 105.6709,19.6837 105.6709,19.3567 L105.6709,18.9627 C105.6709,16.5407 104.8119,14.4587 103.0939,12.7227 C101.3739,10.9877 99.3159,10.1187 96.9169,10.1187 L96.5269,10.1187 C94.1269,10.1187 92.0519,11.0157 90.3019,12.8087 C89.3919,13.7377 88.2899,14.2047 86.9929,14.2047 C85.6319,14.2047 84.4799,13.7297 83.5399,12.7847 C82.5989,11.8377 82.1299,10.7087 82.1299,9.4017 C82.1299,8.0307 82.6159,6.8887 83.5889,5.9727 C87.1549,2.3807 91.4689,0.5837 96.5269,0.5837 L96.9169,0.5837 C101.9759,0.5837 106.2869,2.3747 109.8549,5.9527 C113.4209,9.5327 115.2049,13.8607 115.2049,18.9357 L115.2049,38.8517 Z" id="Fill-41"></path>
                <path d="M147.4541,38.3063 L147.4541,18.5073 C147.4541,16.1033 146.5931,14.0383 144.8761,12.3143 C143.1571,10.5913 141.0971,9.7283 138.6981,9.7283 L138.3091,9.7283 C135.9091,9.7283 133.8501,10.5913 132.1321,12.3143 C130.4131,14.0383 129.5541,16.1033 129.5541,18.5073 L129.5541,38.3063 C129.5541,40.7793 130.4131,42.8743 132.1321,44.5973 C133.8501,46.3223 135.9091,47.1813 138.3091,47.1813 L138.6981,47.1813 C141.0971,47.1813 143.1571,46.3223 144.8761,44.5973 C146.5931,42.8743 147.4541,40.7793 147.4541,38.3063 L147.4541,38.3063 Z M156.9871,71.0153 C156.9871,72.3123 156.5321,73.4313 155.6261,74.3723 C154.7161,75.3123 153.5831,75.7833 152.2211,75.7833 C150.9231,75.7833 149.8041,75.3123 148.8641,74.3723 C147.9231,73.4313 147.4541,72.3123 147.4541,71.0153 L147.4541,54.9643 C147.4541,54.6403 147.2911,54.5423 146.9681,54.6733 C144.3721,56.0353 141.6161,56.7163 138.6981,56.7163 L138.3091,56.7163 C133.2511,56.7163 128.9361,54.9153 125.3711,51.3163 C121.8041,47.7163 120.0201,43.3883 120.0201,38.3293 L120.0201,18.5813 C120.0201,13.5233 121.8041,9.1933 125.3711,5.5953 C128.9361,1.9953 133.2511,0.1953 138.3091,0.1953 L138.6981,0.1953 C143.7571,0.1953 148.0691,1.9953 151.6371,5.5953 C155.2021,9.1933 156.9871,13.5233 156.9871,18.5813 L156.9871,71.0153 Z" id="Fill-43"></path>
                <path d="M199.2363,39.0758 C199.2363,44.1438 197.4523,48.4648 193.8853,52.0368 C190.3183,55.6108 186.0073,57.3958 180.9483,57.3958 L180.5583,57.3958 C175.5003,57.3958 171.1863,55.6108 167.6203,52.0368 C164.0523,48.4648 162.2693,44.1438 162.2693,39.0758 L162.2693,5.3588 C162.2693,4.0598 162.7223,2.9408 163.6323,1.9978 C164.5393,1.0558 165.6743,0.5838 167.0363,0.5838 C168.3333,0.5838 169.4523,1.0558 170.3923,1.9978 C171.3323,2.9408 171.8033,4.0618 171.8033,5.3608 L171.8033,39.0898 C171.8033,41.4938 172.6623,43.5578 174.3813,45.2808 C176.0983,47.0038 178.1583,47.8628 180.5583,47.8628 L180.9483,47.8628 C183.3463,47.8628 185.4053,47.0038 187.1253,45.2808 C188.8423,43.5578 189.7023,41.4938 189.7023,39.0898 L189.7023,5.3608 C189.7023,4.0618 190.1733,2.9408 191.1133,1.9978 C192.0523,1.0558 193.1713,0.5838 194.4693,0.5838 C195.8313,0.5838 196.9653,1.0558 197.8743,1.9978 C198.7823,2.9408 199.2363,4.0598 199.2363,5.3588 L199.2363,39.0758 Z" id="Fill-45"></path>
                <path d="M231.7373,23.734 L231.7373,18.838 C231.7373,16.357 230.8773,14.25 229.1593,12.519 C227.4403,10.791 225.3813,9.923 222.9823,9.923 L222.5923,9.923 C220.1923,9.923 218.1333,10.791 216.4153,12.519 C214.6963,14.25 213.8383,16.357 213.8383,18.838 L213.8383,23.734 C213.8383,24.06 214.0323,24.224 214.4213,24.224 L231.1533,24.224 C231.5433,24.224 231.7373,24.06 231.7373,23.734 L231.7373,23.734 Z M241.2703,28.892 C241.2703,30.255 240.8163,31.408 239.9093,32.347 C239.0003,33.287 237.8663,33.757 236.5053,33.757 L214.4213,33.757 C214.0323,33.757 213.8383,33.92 213.8383,34.244 L213.8383,39.107 C213.8383,41.507 214.6963,43.568 216.4153,45.285 C218.1333,47.004 220.1923,47.863 222.5923,47.863 L222.9823,47.863 C226.4193,47.863 228.9793,46.339 230.6673,43.291 C231.5753,41.605 232.9683,40.761 234.8503,40.761 C236.2123,40.761 237.3463,41.232 238.2553,42.171 C239.1633,43.113 239.6173,44.232 239.6173,45.529 C239.6173,46.373 239.4233,47.15 239.0343,47.863 C237.4773,50.781 235.2553,53.101 232.3703,54.818 C229.4833,56.537 226.3533,57.396 222.9823,57.396 L222.5923,57.396 C217.5343,57.396 213.2203,55.613 209.6553,52.046 C206.0873,48.48 204.3033,44.166 204.3033,39.107 L204.3033,18.775 C204.3033,13.716 206.0873,9.388 209.6553,5.789 C213.2203,2.189 217.5343,0.39 222.5923,0.39 L222.9823,0.39 C228.0413,0.39 232.3523,2.189 235.9213,5.789 C239.4863,9.388 241.2703,13.716 241.2703,18.775 L241.2703,28.892 Z" id="Fill-47"></path>
                <path d="M283.1504,52.0465 C283.1504,53.4075 282.6844,54.5605 281.7534,55.4995 C280.8234,56.4415 279.6824,56.9095 278.3354,56.9095 C277.0504,56.9095 275.9424,56.4415 275.0124,55.4995 C274.0824,54.5605 273.6174,53.4075 273.6174,52.0465 L273.6174,18.7755 C273.6174,16.3125 272.7524,14.2205 271.0254,12.5015 C269.2964,10.7825 267.2274,9.9235 264.8144,9.9235 L264.4224,9.9235 C262.0084,9.9235 259.9384,10.7825 258.2124,12.5015 C256.4834,14.2205 255.6204,16.3125 255.6204,18.7755 L255.6204,52.0465 C255.6204,53.4075 255.1494,54.5605 254.2104,55.4995 C253.2684,56.4415 252.1494,56.9095 250.8524,56.9095 C249.5554,56.9095 248.4364,56.4415 247.4974,55.4995 C246.5554,54.5605 246.0874,53.4075 246.0874,52.0465 L246.0874,18.7755 C246.0874,13.7165 247.8704,9.3885 251.4364,5.7885 C255.0034,2.1895 259.3174,0.3905 264.3764,0.3905 L264.7644,0.3905 C269.8234,0.3905 274.1514,2.1895 277.7514,5.7885 C281.3504,9.3885 283.1504,13.7165 283.1504,18.7755 L283.1504,52.0465 Z" id="Fill-49"></path>
                <path d="M322.9971,47.7652 C321.3741,50.7492 319.1201,53.1012 316.2351,54.8182 C313.3491,56.5362 310.2201,57.3962 306.8491,57.3962 L306.4591,57.3962 C301.4001,57.3962 297.0711,55.6132 293.4721,52.0462 C289.8721,48.4802 288.0731,44.1652 288.0731,39.1072 L288.0731,18.7752 C288.0731,13.7162 289.8721,9.3882 293.4721,5.7882 C297.0711,2.1892 301.4001,0.3902 306.4591,0.3902 L306.8491,0.3902 C310.1551,0.3902 313.2521,1.2492 316.1381,2.9682 C319.0231,4.6872 321.2771,7.0052 322.8991,9.9232 C323.2881,10.6382 323.4831,11.4152 323.4831,12.2572 C323.4831,13.5562 323.0111,14.6752 322.0661,15.6152 C321.1221,16.5542 319.9991,17.0252 318.6981,17.0252 C316.8101,17.0252 315.4101,16.1832 314.4991,14.4952 C312.8061,11.4492 310.2351,9.9232 306.7861,9.9232 L306.3951,9.9232 C303.9851,9.9232 301.9191,10.7832 300.1931,12.5012 C298.4681,14.2202 297.6061,16.3122 297.6061,18.7752 L297.6061,39.1072 C297.6061,41.5072 298.4681,43.5682 300.1931,45.2852 C301.9191,47.0032 303.9851,47.8632 306.3951,47.8632 L306.7861,47.8632 C310.2341,47.8632 312.8061,46.3062 314.4991,43.1932 C315.4101,41.5072 316.8101,40.6632 318.6981,40.6632 C320.0641,40.6632 321.2201,41.1342 322.1631,42.0742 C323.1071,43.0152 323.5801,44.1652 323.5801,45.5292 C323.5801,46.3062 323.3861,47.0522 322.9971,47.7652" id="Fill-51"></path>
                <path d="M355.6328,23.734 L355.6328,18.838 C355.6328,16.357 354.7728,14.25 353.0548,12.519 C351.3358,10.791 349.2768,9.923 346.8778,9.923 L346.4878,9.923 C344.0888,9.923 342.0288,10.791 340.3118,12.519 C338.5928,14.25 337.7338,16.357 337.7338,18.838 L337.7338,23.734 C337.7338,24.06 337.9278,24.224 338.3178,24.224 L355.0488,24.224 C355.4388,24.224 355.6328,24.06 355.6328,23.734 L355.6328,23.734 Z M365.1658,28.892 C365.1658,30.255 364.7118,31.408 363.8048,32.347 C362.8958,33.287 361.7618,33.757 360.3998,33.757 L338.3178,33.757 C337.9278,33.757 337.7338,33.92 337.7338,34.244 L337.7338,39.107 C337.7338,41.507 338.5928,43.568 340.3118,45.285 C342.0288,47.004 344.0888,47.863 346.4878,47.863 L346.8778,47.863 C350.3148,47.863 352.8758,46.339 354.5628,43.291 C355.4708,41.605 356.8638,40.761 358.7458,40.761 C360.1078,40.761 361.2418,41.232 362.1508,42.171 C363.0588,43.113 363.5128,44.232 363.5128,45.529 C363.5128,46.373 363.3188,47.15 362.9288,47.863 C361.3718,50.781 359.1508,53.101 356.2658,54.818 C353.3788,56.537 350.2488,57.396 346.8778,57.396 L346.4878,57.396 C341.4298,57.396 337.1158,55.613 333.5498,52.046 C329.9838,48.48 328.1998,44.166 328.1998,39.107 L328.1998,18.775 C328.1998,13.716 329.9838,9.388 333.5498,5.789 C337.1158,2.189 341.4298,0.39 346.4878,0.39 L346.8778,0.39 C351.9368,0.39 356.2488,2.189 359.8168,5.789 C363.3818,9.388 365.1658,13.716 365.1658,18.775 L365.1658,28.892 Z" id="Fill-53"></path>
            </g>
        </g>
    </g>
</svg>