<?xml version="1.0" encoding="UTF-8"?>
<svg width="198px" height="285px" viewBox="0 0 198 285" version="1.1" xmlns="http://www.w3.org/2000/svg" xmlns:xlink="http://www.w3.org/1999/xlink">
    <!-- Generator: Sketch 45.1 (43504) - http://www.bohemiancoding.com/sketch -->
    <title>seaq-logo-vert</title>
    <desc>Created with Sketch.</desc>
    <defs>
        <polygon id="path-1" points="0.4687 0.266 29.2127 0.266 29.2127 29.1638 0.4687 29.1638 0.4687 0.266"></polygon>
        <polygon id="path-3" points="0.621460971 0.266 29.366652 0.266 29.366652 29.162563 0.621460971 29.162563 0.621460971 0.266"></polygon>
    </defs>
    <g id="Device-Mocks" stroke="none" stroke-width="1" fill="none" fill-rule="evenodd">
        <g id="seaq-logo-vert">
            <g id="Group" transform="translate(96.500000, 138.000000) rotate(-90.000000) translate(-96.500000, -138.000000) translate(-36.000000, 48.000000)">
                <path d="M0,90.5641 C5.054,90.5641 8.657,92.3631 12.257,93.3721 C15.861,94.3801 17.661,92.7501 19.466,90.5641 C21.263,88.4781 23.062,85.8051 26.669,84.7621 C30.271,83.7211 32.069,86.4841 33.872,90.5641 C35.672,94.5481 37.474,99.8301 41.076,100.9051 C44.677,101.9761 46.476,96.5761 48.278,90.5641 C50.077,84.6591 51.881,78.1401 55.482,77.0681 C59.083,75.9991 60.884,82.6071 62.686,90.5641 C64.484,98.4451 66.288,107.5131 69.889,108.9061 C71.69,109.5461 73.04,107.7751 74.167,104.4191 C75.294,101.0521 76.191,95.7901 77.092,90.5641 C77.992,85.3451 78.892,80.1871 80.02,75.6321 C81.146,71.0991 82.497,67.4981 84.296,66.6051 C86.099,65.7261 87.447,68.2141 88.572,72.8041 C89.702,77.3691 90.602,83.6421 91.499,90.5641 C92.4,97.4871 93.302,105.0721 94.427,110.7621 C95.554,116.4641 96.903,120.6601 98.705,121.1441 C102.307,122.1251 104.109,106.2461 105.906,90.5641 C107.71,74.9071 109.51,59.4141 113.112,59.9591 C116.712,60.5891 118.516,76.0291 120.313,90.5641 C122.116,105.2111 123.913,117.2741 127.518,115.0141 C129.318,113.8751 130.671,109.9621 131.797,105.0141 C132.92,100.1131 133.823,95.7941 134.722,90.5641 C135.624,85.3751 136.525,81.0311 137.649,78.3731 C138.21,77.0331 138.831,76.1811 139.536,75.9091 C140.237,75.6781 141.024,76.1071 141.929,77.0821 C145.53,81.8261 147.866,90.5661 156.716,90.5661 L168.587,90.5641" id="Stroke-1" stroke="#FFFFFF" stroke-width="8" stroke-linecap="round" stroke-linejoin="round"></path>
                <path d="M155.9404,90.3668 C155.9404,97.0148 161.3024,102.4078 167.9174,102.4078 C174.5314,102.4078 179.8934,97.0148 179.8934,90.3668 C179.8934,83.7168 174.5314,78.3258 167.9174,78.3258 C161.3024,78.3258 155.9404,83.7168 155.9404,90.3668" id="Fill-3" fill="#FFFFFF"></path>
                <polyline id="Stroke-5" stroke="#FFFFFF" stroke-width="8" stroke-linecap="round" stroke-linejoin="round" points="127.9941 165.2848 147.9561 127.8258 167.9171 90.3668"></polyline>
                <polyline id="Stroke-7" stroke="#FFFFFF" stroke-width="8" stroke-linecap="round" stroke-linejoin="round" points="207.8408 165.2848 187.8788 127.8258 167.9168 90.3668"></polyline>
                <polyline id="Stroke-9" stroke="#FFFFFF" stroke-width="8" stroke-linecap="round" stroke-linejoin="round" points="250.4248 90.3668 209.1708 90.3668 167.9168 90.3668"></polyline>
                <polyline id="Stroke-11" stroke="#FFFFFF" stroke-width="8" stroke-linecap="round" stroke-linejoin="round" points="127.9941 15.4488 147.9561 52.9078 167.9171 90.3668"></polyline>
                <polyline id="Stroke-13" stroke="#FFFFFF" stroke-width="8" stroke-linecap="round" stroke-linejoin="round" points="207.8408 15.4488 187.8788 52.9078 167.9168 90.3668"></polyline>
                <path d="M153.9424,117.402 C148.2134,114.076 140.8904,116.048 137.5844,121.806 C134.2784,127.566 136.2434,134.927 141.9694,138.25 C147.6944,141.576 155.0204,139.605 158.3274,133.847 C161.6334,128.09 159.6694,120.726 153.9424,117.402" id="Fill-15" fill="#FFFFFF"></path>
                <path d="M181.8926,117.4 C176.1646,120.726 174.2016,128.089 177.5066,133.847 C180.8166,139.607 188.1376,141.574 193.8646,138.25 C199.5906,134.929 201.5566,127.566 198.2506,121.808 C194.9446,116.048 187.6186,114.076 181.8926,117.4" id="Fill-17" fill="#FFFFFF"></path>
                <path d="M197.1943,90.3668 C197.1943,97.0148 202.5563,102.4078 209.1713,102.4078 C215.7853,102.4078 221.1473,97.0148 221.1473,90.3668 C221.1473,83.7168 215.7853,78.3258 209.1713,78.3258 C202.5563,78.3258 197.1943,83.7168 197.1943,90.3668" id="Fill-19" fill="#FFFFFF"></path>
                <path d="M153.9424,63.3317 C148.2134,66.6577 140.8904,64.6857 137.5844,58.9277 C134.2784,53.1657 136.2434,45.8067 141.9694,42.4837 C147.6944,39.1557 155.0204,41.1287 158.3274,46.8847 C161.6334,52.6427 159.6694,60.0077 153.9424,63.3317" id="Fill-21" fill="#FFFFFF"></path>
                <path d="M135.1797,152.775 C128.3057,148.785 119.5167,151.152 115.5477,158.06 C111.5797,164.974 113.9397,173.806 120.8117,177.793 C127.6817,181.785 136.4717,179.42 140.4387,172.511 C144.4077,165.601 142.0517,156.765 135.1797,152.775" id="Fill-23" fill="#FFFFFF"></path>
                <path d="M193.4687,165.2848 C193.4687,157.3048 199.9047,150.8358 207.8407,150.8358 C215.7787,150.8358 222.2127,157.3048 222.2127,165.2848 C222.2127,173.2638 215.7787,179.7338 207.8407,179.7338 C199.9047,179.7338 193.4687,173.2638 193.4687,165.2848" id="Fill-25" fill="#FFFFFF"></path>
                <path d="M235.5488,90.3668 C235.5488,98.3458 241.9848,104.8158 249.9208,104.8158 C257.8588,104.8158 264.2928,98.3458 264.2928,90.3668 C264.2928,82.3868 257.8588,75.9178 249.9208,75.9178 C241.9848,75.9178 235.5488,82.3868 235.5488,90.3668" id="Fill-27" fill="#FFFFFF"></path>
                <g id="Group-31" transform="translate(193.000000, 0.734000)">
                    <mask id="mask-2" fill="white">
                        <use xlink:href="#path-1"></use>
                    </mask>
                    <g id="Clip-30"></g>
                    <path d="M0.4687,14.7148 C0.4687,22.6938 6.9047,29.1638 14.8407,29.1638 C22.7787,29.1638 29.2127,22.6938 29.2127,14.7148 C29.2127,6.7348 22.7787,0.2658 14.8407,0.2658 C6.9047,0.2658 0.4687,6.7348 0.4687,14.7148" id="Fill-29" fill="#FFFFFF" mask="url(#mask-2)"></path>
                </g>
                <g id="Group-34" transform="translate(113.000000, 0.734000)">
                    <mask id="mask-4" fill="white">
                        <use xlink:href="#path-3"></use>
                    </mask>
                    <g id="Clip-33"></g>
                    <path d="M22.1797,27.2227 C15.3057,31.2147 6.5167,28.8477 2.5477,21.9377 C-1.4203,15.0257 0.9397,6.1927 7.8117,2.2057 C14.6817,-1.7873 23.4717,0.5787 27.4387,7.4877 C31.4077,14.3967 29.0517,23.2347 22.1797,27.2227" id="Fill-32" fill="#FFFFFF" mask="url(#mask-4)"></path>
                </g>
                <path d="M181.8926,63.3317 C176.1646,60.0077 174.2016,52.6437 177.5066,46.8867 C180.8166,41.1267 188.1376,39.1577 193.8646,42.4817 C199.5906,45.8047 201.5566,53.1677 198.2506,58.9257 C194.9446,64.6837 187.6186,66.6577 181.8926,63.3317" id="Fill-35" fill="#FFFFFF"></path>
            </g>
        </g>
    </g>
</svg>