<?xml version="1.0" encoding="UTF-8"?>
<svg width="88px" height="88px" viewBox="0 0 88 88" version="1.1" xmlns="http://www.w3.org/2000/svg" xmlns:xlink="http://www.w3.org/1999/xlink">
    <!-- Generator: Sketch 45.1 (43504) - http://www.bohemiancoding.com/sketch -->
    <title>social-icon-twitter</title>
    <desc>Created with Sketch.</desc>
    <defs></defs>
    <g id="Icons" stroke="none" stroke-width="1" fill="none" fill-rule="evenodd">
        <g id="social-icon-twitter" fill-rule="nonzero" fill="#CFCFCF">
            <path d="M34.9874499,66.8924613 C55.3715254,66.8924613 66.5207548,50.0044038 66.5207548,35.3591563 C66.5207548,34.8794802 66.5207548,34.4019648 66.4883443,33.92661 C68.6573261,32.3577468 70.5296276,30.4152065 72.0175842,28.1899426 C69.9949045,29.0862062 67.8492185,29.6739755 65.6521521,29.9336302 C67.9657122,28.5485806 69.6972556,26.3701377 70.5245382,23.8037147 C68.3490502,25.0946384 65.9690108,26.0044171 63.4871273,26.4937904 C60.0517878,22.840893 54.5930658,21.9468335 50.1718993,24.3129492 C45.7507327,26.6790648 43.4666441,31.7169143 44.6004192,36.6015608 C35.6894532,36.1548344 27.3871234,31.9459435 21.7596239,25.0223514 C18.8180915,30.0862725 20.3205692,36.5645252 25.1908208,39.8166874 C23.4271277,39.7644147 21.7018885,39.28864 20.1607034,38.4295158 C20.1607034,38.4748906 20.1607034,38.5224261 20.1607034,38.5699616 C20.162147,43.8455197 23.8808976,48.389354 29.0519977,49.4339781 C27.4203849,49.8789534 25.7084834,49.9439998 24.0478087,49.62412 C25.4996889,54.1387429 29.6603968,57.2314895 34.4018993,57.3205454 C30.4774894,60.4048024 25.6295722,62.0791223 20.6382188,62.0740928 C19.7564435,62.0724 18.8755258,62.019011 18,61.9142007 C23.0682235,65.1666569 28.9653825,66.8918496 34.9874499,66.8838185" id="Shape"></path>
        </g>
    </g>
</svg>