<?xml version="1.0" encoding="UTF-8"?>
<svg width="88px" height="88px" viewBox="0 0 88 88" version="1.1" xmlns="http://www.w3.org/2000/svg" xmlns:xlink="http://www.w3.org/1999/xlink">
    <!-- Generator: Sketch 45.1 (43504) - http://www.bohemiancoding.com/sketch -->
    <title>social-icon-ig</title>
    <desc>Created with Sketch.</desc>
    <defs></defs>
    <g id="Icons" stroke="none" stroke-width="1" fill="none" fill-rule="evenodd">
        <g id="social-icon-ig">
            <path d="M44.2185542,22.0507812 C50.3494665,22.0507812 51.3419038,22.0663868 54.1636461,22.1951307 C56.4106051,22.2975895 57.9542915,22.6257035 59.3823789,23.1807222 C60.8025435,23.7326528 61.8719862,24.4284004 62.9401502,25.4966856 C64.0086113,26.5650255 64.7043589,27.6344682 65.2562851,29.0546215 C65.8113083,30.4827202 66.1394222,32.0264067 66.2418784,34.2733071 C66.3706249,37.0951089 66.3862305,38.0875524 66.3862305,44.2185542 C66.3862305,50.3494665 66.3706249,51.3419038 66.241881,54.1636461 C66.1394222,56.4106051 65.8113083,57.9542915 65.2562895,59.3823789 C64.7043589,60.8025435 64.0086113,61.8719862 62.9403262,62.9401502 C61.8719862,64.0086113 60.8025435,64.7043589 59.3823902,65.2562851 C57.9542915,65.8113083 56.4106051,66.1394222 54.1637197,66.2418777 C51.3423218,66.3706252 50.3499137,66.3862305 44.2185542,66.3862305 C38.0871476,66.3862305 37.094826,66.3706266 34.2733656,66.241881 C32.0264067,66.1394222 30.4827202,65.8113083 29.0546328,65.2562895 C27.6344682,64.7043589 26.5650255,64.0086113 25.4967735,62.9402382 C24.4283689,61.8718336 23.7325946,60.8023937 23.1807266,59.3823902 C22.6257035,57.9542915 22.2975895,56.4106051 22.1951334,54.1637047 C22.0663868,51.3419038 22.0507812,50.3494665 22.0507812,44.2185542 C22.0507812,38.0875524 22.0663868,37.0951089 22.1951307,34.2733656 C22.2975895,32.0264067 22.6257035,30.4827202 23.1807222,29.0546328 C23.7326528,27.6344682 24.4284004,26.5650255 25.4966856,25.4968615 C26.5650255,24.4284004 27.6344682,23.7326528 29.0546215,23.1807266 C30.4827202,22.6257035 32.0264067,22.2975895 34.2733071,22.1951334 C37.0951089,22.0663868 38.0875524,22.0507812 44.2185542,22.0507812 Z" id="Path-Copy" stroke="#CFCFCF" stroke-width="5" fill-rule="nonzero"></path>
            <path d="M43.9006487,33.2618464 C38.0249442,33.2618464 33.2618464,38.0249442 33.2618464,43.9006487 C33.2618464,49.7762709 38.0249442,54.5393687 43.9006487,54.5393687 C49.7762709,54.5393687 54.5393687,49.7762709 54.5393687,43.9006487 C54.5393687,38.0249442 49.7762709,33.2618464 43.9006487,33.2618464 L43.9006487,33.2618464 Z" id="Path-Copy-2" stroke="#CFCFCF" stroke-width="5"></path>
            <path d="M60.0690777,30.8237879 C60.0690777,32.4385217 58.7600562,33.7474464 57.1453224,33.7474464 C55.5306853,33.7474464 54.2216638,32.4385217 54.2216638,30.8237879 C54.2216638,29.2090541 55.5306853,27.9000326 57.1453224,27.9000326 C58.7600562,27.9000326 60.0690777,29.2090541 60.0690777,30.8237879" id="Fill-5-Copy" fill="#CFCFCF"></path>
        </g>
    </g>
</svg>