<?xml version="1.0" encoding="UTF-8"?>
<svg width="88px" height="88px" viewBox="0 0 88 88" version="1.1" xmlns="http://www.w3.org/2000/svg" xmlns:xlink="http://www.w3.org/1999/xlink">
    <!-- Generator: Sketch 45.1 (43504) - http://www.bohemiancoding.com/sketch -->
    <title>social-icon-fb</title>
    <desc>Created with Sketch.</desc>
    <defs></defs>
    <g id="Icons" stroke="none" stroke-width="1" fill="none" fill-rule="evenodd">
        <g id="social-icon-fb" fill="#CFCFCF">
            <path d="M64.4612393,21 L23.5387607,21 C22.1364961,21 21,22.1364919 21,23.5387512 L21,64.4610765 C21,65.8631634 22.1364961,67 23.5387607,67 L45.5701365,67 L45.5701365,49.1863429 L39.575352,49.1863429 L39.575352,42.2439873 L45.5701365,42.2439873 L45.5701365,37.1242586 C45.5701365,31.1829259 49.198858,27.9476985 54.4990596,27.9476985 C57.0379926,27.9476985 59.2199825,28.1365968 59.8557929,28.2210495 L59.8557929,34.4302179 L56.1798467,34.4319414 C53.297414,34.4319414 52.7391624,35.8016261 52.7391624,37.8116001 L52.7391624,42.2439873 L59.6138092,42.2439873 L58.7187797,49.1863429 L52.7391624,49.1863429 L52.7391624,67 L64.4612393,67 C65.8633315,67 67,65.8631634 67,64.4610765 L67,23.5387512 C67,22.1364919 65.8633315,21 64.4612393,21" id="Fill-1-Copy"></path>
        </g>
    </g>
</svg>